<?xml version="1.0" encoding="utf-8"?>
<svg xmlns="http://www.w3.org/2000/svg" xmlns:xlink="http://www.w3.org/1999/xlink" style="margin: auto; background: none; display: block; shape-rendering: auto;" width="200px" height="200px" viewBox="0 0 100 100" preserveAspectRatio="xMidYMid">
<g transform="rotate(0 50 50)">
  <rect x="47.5" y="24" rx="0" ry="0" width="5" height="12" fill="#ffb600">
    <animate attributeName="opacity" values="1;0" keyTimes="0;1" dur="1.1363636363636365s" begin="-1.125s" repeatCount="indefinite"></animate>
  </rect>
</g><g transform="rotate(3.6 50 50)">
  <rect x="47.5" y="24" rx="0" ry="0" width="5" height="12" fill="#ffb600">
    <animate attributeName="opacity" values="1;0" keyTimes="0;1" dur="1.1363636363636365s" begin="-1.1136363636363635s" repeatCount="indefinite"></animate>
  </rect>
</g><g transform="rotate(7.2 50 50)">
  <rect x="47.5" y="24" rx="0" ry="0" width="5" height="12" fill="#ffb600">
    <animate attributeName="opacity" values="1;0" keyTimes="0;1" dur="1.1363636363636365s" begin="-1.1022727272727273s" repeatCount="indefinite"></animate>
  </rect>
</g><g transform="rotate(10.8 50 50)">
  <rect x="47.5" y="24" rx="0" ry="0" width="5" height="12" fill="#ffb600">
    <animate attributeName="opacity" values="1;0" keyTimes="0;1" dur="1.1363636363636365s" begin="-1.0909090909090908s" repeatCount="indefinite"></animate>
  </rect>
</g><g transform="rotate(14.4 50 50)">
  <rect x="47.5" y="24" rx="0" ry="0" width="5" height="12" fill="#ffb600">
    <animate attributeName="opacity" values="1;0" keyTimes="0;1" dur="1.1363636363636365s" begin="-1.0795454545454546s" repeatCount="indefinite"></animate>
  </rect>
</g><g transform="rotate(18 50 50)">
  <rect x="47.5" y="24" rx="0" ry="0" width="5" height="12" fill="#ffb600">
    <animate attributeName="opacity" values="1;0" keyTimes="0;1" dur="1.1363636363636365s" begin="-1.0681818181818181s" repeatCount="indefinite"></animate>
  </rect>
</g><g transform="rotate(21.6 50 50)">
  <rect x="47.5" y="24" rx="0" ry="0" width="5" height="12" fill="#ffb600">
    <animate attributeName="opacity" values="1;0" keyTimes="0;1" dur="1.1363636363636365s" begin="-1.0568181818181819s" repeatCount="indefinite"></animate>
  </rect>
</g><g transform="rotate(25.2 50 50)">
  <rect x="47.5" y="24" rx="0" ry="0" width="5" height="12" fill="#ffb600">
    <animate attributeName="opacity" values="1;0" keyTimes="0;1" dur="1.1363636363636365s" begin="-1.0454545454545454s" repeatCount="indefinite"></animate>
  </rect>
</g><g transform="rotate(28.8 50 50)">
  <rect x="47.5" y="24" rx="0" ry="0" width="5" height="12" fill="#ffb600">
    <animate attributeName="opacity" values="1;0" keyTimes="0;1" dur="1.1363636363636365s" begin="-1.0340909090909092s" repeatCount="indefinite"></animate>
  </rect>
</g><g transform="rotate(32.4 50 50)">
  <rect x="47.5" y="24" rx="0" ry="0" width="5" height="12" fill="#ffb600">
    <animate attributeName="opacity" values="1;0" keyTimes="0;1" dur="1.1363636363636365s" begin="-1.0227272727272727s" repeatCount="indefinite"></animate>
  </rect>
</g><g transform="rotate(36 50 50)">
  <rect x="47.5" y="24" rx="0" ry="0" width="5" height="12" fill="#ffb600">
    <animate attributeName="opacity" values="1;0" keyTimes="0;1" dur="1.1363636363636365s" begin="-1.0113636363636365s" repeatCount="indefinite"></animate>
  </rect>
</g><g transform="rotate(39.6 50 50)">
  <rect x="47.5" y="24" rx="0" ry="0" width="5" height="12" fill="#ffb600">
    <animate attributeName="opacity" values="1;0" keyTimes="0;1" dur="1.1363636363636365s" begin="-1s" repeatCount="indefinite"></animate>
  </rect>
</g><g transform="rotate(43.2 50 50)">
  <rect x="47.5" y="24" rx="0" ry="0" width="5" height="12" fill="#ffb600">
    <animate attributeName="opacity" values="1;0" keyTimes="0;1" dur="1.1363636363636365s" begin="-0.9886363636363636s" repeatCount="indefinite"></animate>
  </rect>
</g><g transform="rotate(46.8 50 50)">
  <rect x="47.5" y="24" rx="0" ry="0" width="5" height="12" fill="#ffb600">
    <animate attributeName="opacity" values="1;0" keyTimes="0;1" dur="1.1363636363636365s" begin="-0.9772727272727273s" repeatCount="indefinite"></animate>
  </rect>
</g><g transform="rotate(50.4 50 50)">
  <rect x="47.5" y="24" rx="0" ry="0" width="5" height="12" fill="#ffb600">
    <animate attributeName="opacity" values="1;0" keyTimes="0;1" dur="1.1363636363636365s" begin="-0.9659090909090909s" repeatCount="indefinite"></animate>
  </rect>
</g><g transform="rotate(54 50 50)">
  <rect x="47.5" y="24" rx="0" ry="0" width="5" height="12" fill="#ffb600">
    <animate attributeName="opacity" values="1;0" keyTimes="0;1" dur="1.1363636363636365s" begin="-0.9545454545454546s" repeatCount="indefinite"></animate>
  </rect>
</g><g transform="rotate(57.6 50 50)">
  <rect x="47.5" y="24" rx="0" ry="0" width="5" height="12" fill="#ffb600">
    <animate attributeName="opacity" values="1;0" keyTimes="0;1" dur="1.1363636363636365s" begin="-0.9431818181818182s" repeatCount="indefinite"></animate>
  </rect>
</g><g transform="rotate(61.2 50 50)">
  <rect x="47.5" y="24" rx="0" ry="0" width="5" height="12" fill="#ffb600">
    <animate attributeName="opacity" values="1;0" keyTimes="0;1" dur="1.1363636363636365s" begin="-0.9318181818181818s" repeatCount="indefinite"></animate>
  </rect>
</g><g transform="rotate(64.8 50 50)">
  <rect x="47.5" y="24" rx="0" ry="0" width="5" height="12" fill="#ffb600">
    <animate attributeName="opacity" values="1;0" keyTimes="0;1" dur="1.1363636363636365s" begin="-0.9204545454545454s" repeatCount="indefinite"></animate>
  </rect>
</g><g transform="rotate(68.4 50 50)">
  <rect x="47.5" y="24" rx="0" ry="0" width="5" height="12" fill="#ffb600">
    <animate attributeName="opacity" values="1;0" keyTimes="0;1" dur="1.1363636363636365s" begin="-0.9090909090909091s" repeatCount="indefinite"></animate>
  </rect>
</g><g transform="rotate(72 50 50)">
  <rect x="47.5" y="24" rx="0" ry="0" width="5" height="12" fill="#ffb600">
    <animate attributeName="opacity" values="1;0" keyTimes="0;1" dur="1.1363636363636365s" begin="-0.8977272727272727s" repeatCount="indefinite"></animate>
  </rect>
</g><g transform="rotate(75.6 50 50)">
  <rect x="47.5" y="24" rx="0" ry="0" width="5" height="12" fill="#ffb600">
    <animate attributeName="opacity" values="1;0" keyTimes="0;1" dur="1.1363636363636365s" begin="-0.8863636363636364s" repeatCount="indefinite"></animate>
  </rect>
</g><g transform="rotate(79.2 50 50)">
  <rect x="47.5" y="24" rx="0" ry="0" width="5" height="12" fill="#ffb600">
    <animate attributeName="opacity" values="1;0" keyTimes="0;1" dur="1.1363636363636365s" begin="-0.875s" repeatCount="indefinite"></animate>
  </rect>
</g><g transform="rotate(82.8 50 50)">
  <rect x="47.5" y="24" rx="0" ry="0" width="5" height="12" fill="#ffb600">
    <animate attributeName="opacity" values="1;0" keyTimes="0;1" dur="1.1363636363636365s" begin="-0.8636363636363636s" repeatCount="indefinite"></animate>
  </rect>
</g><g transform="rotate(86.4 50 50)">
  <rect x="47.5" y="24" rx="0" ry="0" width="5" height="12" fill="#ffb600">
    <animate attributeName="opacity" values="1;0" keyTimes="0;1" dur="1.1363636363636365s" begin="-0.8522727272727273s" repeatCount="indefinite"></animate>
  </rect>
</g><g transform="rotate(90 50 50)">
  <rect x="47.5" y="24" rx="0" ry="0" width="5" height="12" fill="#ffb600">
    <animate attributeName="opacity" values="1;0" keyTimes="0;1" dur="1.1363636363636365s" begin="-0.8409090909090909s" repeatCount="indefinite"></animate>
  </rect>
</g><g transform="rotate(93.6 50 50)">
  <rect x="47.5" y="24" rx="0" ry="0" width="5" height="12" fill="#ffb600">
    <animate attributeName="opacity" values="1;0" keyTimes="0;1" dur="1.1363636363636365s" begin="-0.8295454545454546s" repeatCount="indefinite"></animate>
  </rect>
</g><g transform="rotate(97.2 50 50)">
  <rect x="47.5" y="24" rx="0" ry="0" width="5" height="12" fill="#ffb600">
    <animate attributeName="opacity" values="1;0" keyTimes="0;1" dur="1.1363636363636365s" begin="-0.8181818181818182s" repeatCount="indefinite"></animate>
  </rect>
</g><g transform="rotate(100.8 50 50)">
  <rect x="47.5" y="24" rx="0" ry="0" width="5" height="12" fill="#ffb600">
    <animate attributeName="opacity" values="1;0" keyTimes="0;1" dur="1.1363636363636365s" begin="-0.8068181818181818s" repeatCount="indefinite"></animate>
  </rect>
</g><g transform="rotate(104.4 50 50)">
  <rect x="47.5" y="24" rx="0" ry="0" width="5" height="12" fill="#ffb600">
    <animate attributeName="opacity" values="1;0" keyTimes="0;1" dur="1.1363636363636365s" begin="-0.7954545454545454s" repeatCount="indefinite"></animate>
  </rect>
</g><g transform="rotate(108 50 50)">
  <rect x="47.5" y="24" rx="0" ry="0" width="5" height="12" fill="#ffb600">
    <animate attributeName="opacity" values="1;0" keyTimes="0;1" dur="1.1363636363636365s" begin="-0.7840909090909091s" repeatCount="indefinite"></animate>
  </rect>
</g><g transform="rotate(111.6 50 50)">
  <rect x="47.5" y="24" rx="0" ry="0" width="5" height="12" fill="#ffb600">
    <animate attributeName="opacity" values="1;0" keyTimes="0;1" dur="1.1363636363636365s" begin="-0.7727272727272727s" repeatCount="indefinite"></animate>
  </rect>
</g><g transform="rotate(115.2 50 50)">
  <rect x="47.5" y="24" rx="0" ry="0" width="5" height="12" fill="#ffb600">
    <animate attributeName="opacity" values="1;0" keyTimes="0;1" dur="1.1363636363636365s" begin="-0.7613636363636364s" repeatCount="indefinite"></animate>
  </rect>
</g><g transform="rotate(118.8 50 50)">
  <rect x="47.5" y="24" rx="0" ry="0" width="5" height="12" fill="#ffb600">
    <animate attributeName="opacity" values="1;0" keyTimes="0;1" dur="1.1363636363636365s" begin="-0.75s" repeatCount="indefinite"></animate>
  </rect>
</g><g transform="rotate(122.4 50 50)">
  <rect x="47.5" y="24" rx="0" ry="0" width="5" height="12" fill="#ffb600">
    <animate attributeName="opacity" values="1;0" keyTimes="0;1" dur="1.1363636363636365s" begin="-0.7386363636363636s" repeatCount="indefinite"></animate>
  </rect>
</g><g transform="rotate(126 50 50)">
  <rect x="47.5" y="24" rx="0" ry="0" width="5" height="12" fill="#ffb600">
    <animate attributeName="opacity" values="1;0" keyTimes="0;1" dur="1.1363636363636365s" begin="-0.7272727272727273s" repeatCount="indefinite"></animate>
  </rect>
</g><g transform="rotate(129.6 50 50)">
  <rect x="47.5" y="24" rx="0" ry="0" width="5" height="12" fill="#ffb600">
    <animate attributeName="opacity" values="1;0" keyTimes="0;1" dur="1.1363636363636365s" begin="-0.7159090909090909s" repeatCount="indefinite"></animate>
  </rect>
</g><g transform="rotate(133.2 50 50)">
  <rect x="47.5" y="24" rx="0" ry="0" width="5" height="12" fill="#ffb600">
    <animate attributeName="opacity" values="1;0" keyTimes="0;1" dur="1.1363636363636365s" begin="-0.7045454545454546s" repeatCount="indefinite"></animate>
  </rect>
</g><g transform="rotate(136.8 50 50)">
  <rect x="47.5" y="24" rx="0" ry="0" width="5" height="12" fill="#ffb600">
    <animate attributeName="opacity" values="1;0" keyTimes="0;1" dur="1.1363636363636365s" begin="-0.6931818181818182s" repeatCount="indefinite"></animate>
  </rect>
</g><g transform="rotate(140.4 50 50)">
  <rect x="47.5" y="24" rx="0" ry="0" width="5" height="12" fill="#ffb600">
    <animate attributeName="opacity" values="1;0" keyTimes="0;1" dur="1.1363636363636365s" begin="-0.6818181818181818s" repeatCount="indefinite"></animate>
  </rect>
</g><g transform="rotate(144 50 50)">
  <rect x="47.5" y="24" rx="0" ry="0" width="5" height="12" fill="#ffb600">
    <animate attributeName="opacity" values="1;0" keyTimes="0;1" dur="1.1363636363636365s" begin="-0.6704545454545454s" repeatCount="indefinite"></animate>
  </rect>
</g><g transform="rotate(147.6 50 50)">
  <rect x="47.5" y="24" rx="0" ry="0" width="5" height="12" fill="#ffb600">
    <animate attributeName="opacity" values="1;0" keyTimes="0;1" dur="1.1363636363636365s" begin="-0.6590909090909091s" repeatCount="indefinite"></animate>
  </rect>
</g><g transform="rotate(151.2 50 50)">
  <rect x="47.5" y="24" rx="0" ry="0" width="5" height="12" fill="#ffb600">
    <animate attributeName="opacity" values="1;0" keyTimes="0;1" dur="1.1363636363636365s" begin="-0.6477272727272727s" repeatCount="indefinite"></animate>
  </rect>
</g><g transform="rotate(154.8 50 50)">
  <rect x="47.5" y="24" rx="0" ry="0" width="5" height="12" fill="#ffb600">
    <animate attributeName="opacity" values="1;0" keyTimes="0;1" dur="1.1363636363636365s" begin="-0.6363636363636364s" repeatCount="indefinite"></animate>
  </rect>
</g><g transform="rotate(158.4 50 50)">
  <rect x="47.5" y="24" rx="0" ry="0" width="5" height="12" fill="#ffb600">
    <animate attributeName="opacity" values="1;0" keyTimes="0;1" dur="1.1363636363636365s" begin="-0.625s" repeatCount="indefinite"></animate>
  </rect>
</g><g transform="rotate(162 50 50)">
  <rect x="47.5" y="24" rx="0" ry="0" width="5" height="12" fill="#ffb600">
    <animate attributeName="opacity" values="1;0" keyTimes="0;1" dur="1.1363636363636365s" begin="-0.6136363636363636s" repeatCount="indefinite"></animate>
  </rect>
</g><g transform="rotate(165.6 50 50)">
  <rect x="47.5" y="24" rx="0" ry="0" width="5" height="12" fill="#ffb600">
    <animate attributeName="opacity" values="1;0" keyTimes="0;1" dur="1.1363636363636365s" begin="-0.6022727272727273s" repeatCount="indefinite"></animate>
  </rect>
</g><g transform="rotate(169.2 50 50)">
  <rect x="47.5" y="24" rx="0" ry="0" width="5" height="12" fill="#ffb600">
    <animate attributeName="opacity" values="1;0" keyTimes="0;1" dur="1.1363636363636365s" begin="-0.5909090909090909s" repeatCount="indefinite"></animate>
  </rect>
</g><g transform="rotate(172.8 50 50)">
  <rect x="47.5" y="24" rx="0" ry="0" width="5" height="12" fill="#ffb600">
    <animate attributeName="opacity" values="1;0" keyTimes="0;1" dur="1.1363636363636365s" begin="-0.5795454545454546s" repeatCount="indefinite"></animate>
  </rect>
</g><g transform="rotate(176.4 50 50)">
  <rect x="47.5" y="24" rx="0" ry="0" width="5" height="12" fill="#ffb600">
    <animate attributeName="opacity" values="1;0" keyTimes="0;1" dur="1.1363636363636365s" begin="-0.5681818181818182s" repeatCount="indefinite"></animate>
  </rect>
</g><g transform="rotate(180 50 50)">
  <rect x="47.5" y="24" rx="0" ry="0" width="5" height="12" fill="#ffb600">
    <animate attributeName="opacity" values="1;0" keyTimes="0;1" dur="1.1363636363636365s" begin="-0.5568181818181818s" repeatCount="indefinite"></animate>
  </rect>
</g><g transform="rotate(183.6 50 50)">
  <rect x="47.5" y="24" rx="0" ry="0" width="5" height="12" fill="#ffb600">
    <animate attributeName="opacity" values="1;0" keyTimes="0;1" dur="1.1363636363636365s" begin="-0.5454545454545454s" repeatCount="indefinite"></animate>
  </rect>
</g><g transform="rotate(187.2 50 50)">
  <rect x="47.5" y="24" rx="0" ry="0" width="5" height="12" fill="#ffb600">
    <animate attributeName="opacity" values="1;0" keyTimes="0;1" dur="1.1363636363636365s" begin="-0.5340909090909091s" repeatCount="indefinite"></animate>
  </rect>
</g><g transform="rotate(190.8 50 50)">
  <rect x="47.5" y="24" rx="0" ry="0" width="5" height="12" fill="#ffb600">
    <animate attributeName="opacity" values="1;0" keyTimes="0;1" dur="1.1363636363636365s" begin="-0.5227272727272727s" repeatCount="indefinite"></animate>
  </rect>
</g><g transform="rotate(194.4 50 50)">
  <rect x="47.5" y="24" rx="0" ry="0" width="5" height="12" fill="#ffb600">
    <animate attributeName="opacity" values="1;0" keyTimes="0;1" dur="1.1363636363636365s" begin="-0.5113636363636364s" repeatCount="indefinite"></animate>
  </rect>
</g><g transform="rotate(198 50 50)">
  <rect x="47.5" y="24" rx="0" ry="0" width="5" height="12" fill="#ffb600">
    <animate attributeName="opacity" values="1;0" keyTimes="0;1" dur="1.1363636363636365s" begin="-0.5s" repeatCount="indefinite"></animate>
  </rect>
</g><g transform="rotate(201.6 50 50)">
  <rect x="47.5" y="24" rx="0" ry="0" width="5" height="12" fill="#ffb600">
    <animate attributeName="opacity" values="1;0" keyTimes="0;1" dur="1.1363636363636365s" begin="-0.48863636363636365s" repeatCount="indefinite"></animate>
  </rect>
</g><g transform="rotate(205.2 50 50)">
  <rect x="47.5" y="24" rx="0" ry="0" width="5" height="12" fill="#ffb600">
    <animate attributeName="opacity" values="1;0" keyTimes="0;1" dur="1.1363636363636365s" begin="-0.4772727272727273s" repeatCount="indefinite"></animate>
  </rect>
</g><g transform="rotate(208.8 50 50)">
  <rect x="47.5" y="24" rx="0" ry="0" width="5" height="12" fill="#ffb600">
    <animate attributeName="opacity" values="1;0" keyTimes="0;1" dur="1.1363636363636365s" begin="-0.4659090909090909s" repeatCount="indefinite"></animate>
  </rect>
</g><g transform="rotate(212.4 50 50)">
  <rect x="47.5" y="24" rx="0" ry="0" width="5" height="12" fill="#ffb600">
    <animate attributeName="opacity" values="1;0" keyTimes="0;1" dur="1.1363636363636365s" begin="-0.45454545454545453s" repeatCount="indefinite"></animate>
  </rect>
</g><g transform="rotate(216 50 50)">
  <rect x="47.5" y="24" rx="0" ry="0" width="5" height="12" fill="#ffb600">
    <animate attributeName="opacity" values="1;0" keyTimes="0;1" dur="1.1363636363636365s" begin="-0.4431818181818182s" repeatCount="indefinite"></animate>
  </rect>
</g><g transform="rotate(219.6 50 50)">
  <rect x="47.5" y="24" rx="0" ry="0" width="5" height="12" fill="#ffb600">
    <animate attributeName="opacity" values="1;0" keyTimes="0;1" dur="1.1363636363636365s" begin="-0.4318181818181818s" repeatCount="indefinite"></animate>
  </rect>
</g><g transform="rotate(223.2 50 50)">
  <rect x="47.5" y="24" rx="0" ry="0" width="5" height="12" fill="#ffb600">
    <animate attributeName="opacity" values="1;0" keyTimes="0;1" dur="1.1363636363636365s" begin="-0.42045454545454547s" repeatCount="indefinite"></animate>
  </rect>
</g><g transform="rotate(226.8 50 50)">
  <rect x="47.5" y="24" rx="0" ry="0" width="5" height="12" fill="#ffb600">
    <animate attributeName="opacity" values="1;0" keyTimes="0;1" dur="1.1363636363636365s" begin="-0.4090909090909091s" repeatCount="indefinite"></animate>
  </rect>
</g><g transform="rotate(230.4 50 50)">
  <rect x="47.5" y="24" rx="0" ry="0" width="5" height="12" fill="#ffb600">
    <animate attributeName="opacity" values="1;0" keyTimes="0;1" dur="1.1363636363636365s" begin="-0.3977272727272727s" repeatCount="indefinite"></animate>
  </rect>
</g><g transform="rotate(234 50 50)">
  <rect x="47.5" y="24" rx="0" ry="0" width="5" height="12" fill="#ffb600">
    <animate attributeName="opacity" values="1;0" keyTimes="0;1" dur="1.1363636363636365s" begin="-0.38636363636363635s" repeatCount="indefinite"></animate>
  </rect>
</g><g transform="rotate(237.6 50 50)">
  <rect x="47.5" y="24" rx="0" ry="0" width="5" height="12" fill="#ffb600">
    <animate attributeName="opacity" values="1;0" keyTimes="0;1" dur="1.1363636363636365s" begin="-0.375s" repeatCount="indefinite"></animate>
  </rect>
</g><g transform="rotate(241.2 50 50)">
  <rect x="47.5" y="24" rx="0" ry="0" width="5" height="12" fill="#ffb600">
    <animate attributeName="opacity" values="1;0" keyTimes="0;1" dur="1.1363636363636365s" begin="-0.36363636363636365s" repeatCount="indefinite"></animate>
  </rect>
</g><g transform="rotate(244.8 50 50)">
  <rect x="47.5" y="24" rx="0" ry="0" width="5" height="12" fill="#ffb600">
    <animate attributeName="opacity" values="1;0" keyTimes="0;1" dur="1.1363636363636365s" begin="-0.3522727272727273s" repeatCount="indefinite"></animate>
  </rect>
</g><g transform="rotate(248.4 50 50)">
  <rect x="47.5" y="24" rx="0" ry="0" width="5" height="12" fill="#ffb600">
    <animate attributeName="opacity" values="1;0" keyTimes="0;1" dur="1.1363636363636365s" begin="-0.3409090909090909s" repeatCount="indefinite"></animate>
  </rect>
</g><g transform="rotate(252 50 50)">
  <rect x="47.5" y="24" rx="0" ry="0" width="5" height="12" fill="#ffb600">
    <animate attributeName="opacity" values="1;0" keyTimes="0;1" dur="1.1363636363636365s" begin="-0.32954545454545453s" repeatCount="indefinite"></animate>
  </rect>
</g><g transform="rotate(255.6 50 50)">
  <rect x="47.5" y="24" rx="0" ry="0" width="5" height="12" fill="#ffb600">
    <animate attributeName="opacity" values="1;0" keyTimes="0;1" dur="1.1363636363636365s" begin="-0.3181818181818182s" repeatCount="indefinite"></animate>
  </rect>
</g><g transform="rotate(259.2 50 50)">
  <rect x="47.5" y="24" rx="0" ry="0" width="5" height="12" fill="#ffb600">
    <animate attributeName="opacity" values="1;0" keyTimes="0;1" dur="1.1363636363636365s" begin="-0.3068181818181818s" repeatCount="indefinite"></animate>
  </rect>
</g><g transform="rotate(262.8 50 50)">
  <rect x="47.5" y="24" rx="0" ry="0" width="5" height="12" fill="#ffb600">
    <animate attributeName="opacity" values="1;0" keyTimes="0;1" dur="1.1363636363636365s" begin="-0.29545454545454547s" repeatCount="indefinite"></animate>
  </rect>
</g><g transform="rotate(266.4 50 50)">
  <rect x="47.5" y="24" rx="0" ry="0" width="5" height="12" fill="#ffb600">
    <animate attributeName="opacity" values="1;0" keyTimes="0;1" dur="1.1363636363636365s" begin="-0.2840909090909091s" repeatCount="indefinite"></animate>
  </rect>
</g><g transform="rotate(270 50 50)">
  <rect x="47.5" y="24" rx="0" ry="0" width="5" height="12" fill="#ffb600">
    <animate attributeName="opacity" values="1;0" keyTimes="0;1" dur="1.1363636363636365s" begin="-0.2727272727272727s" repeatCount="indefinite"></animate>
  </rect>
</g><g transform="rotate(273.6 50 50)">
  <rect x="47.5" y="24" rx="0" ry="0" width="5" height="12" fill="#ffb600">
    <animate attributeName="opacity" values="1;0" keyTimes="0;1" dur="1.1363636363636365s" begin="-0.26136363636363635s" repeatCount="indefinite"></animate>
  </rect>
</g><g transform="rotate(277.2 50 50)">
  <rect x="47.5" y="24" rx="0" ry="0" width="5" height="12" fill="#ffb600">
    <animate attributeName="opacity" values="1;0" keyTimes="0;1" dur="1.1363636363636365s" begin="-0.25s" repeatCount="indefinite"></animate>
  </rect>
</g><g transform="rotate(280.8 50 50)">
  <rect x="47.5" y="24" rx="0" ry="0" width="5" height="12" fill="#ffb600">
    <animate attributeName="opacity" values="1;0" keyTimes="0;1" dur="1.1363636363636365s" begin="-0.23863636363636365s" repeatCount="indefinite"></animate>
  </rect>
</g><g transform="rotate(284.4 50 50)">
  <rect x="47.5" y="24" rx="0" ry="0" width="5" height="12" fill="#ffb600">
    <animate attributeName="opacity" values="1;0" keyTimes="0;1" dur="1.1363636363636365s" begin="-0.22727272727272727s" repeatCount="indefinite"></animate>
  </rect>
</g><g transform="rotate(288 50 50)">
  <rect x="47.5" y="24" rx="0" ry="0" width="5" height="12" fill="#ffb600">
    <animate attributeName="opacity" values="1;0" keyTimes="0;1" dur="1.1363636363636365s" begin="-0.2159090909090909s" repeatCount="indefinite"></animate>
  </rect>
</g><g transform="rotate(291.6 50 50)">
  <rect x="47.5" y="24" rx="0" ry="0" width="5" height="12" fill="#ffb600">
    <animate attributeName="opacity" values="1;0" keyTimes="0;1" dur="1.1363636363636365s" begin="-0.20454545454545456s" repeatCount="indefinite"></animate>
  </rect>
</g><g transform="rotate(295.2 50 50)">
  <rect x="47.5" y="24" rx="0" ry="0" width="5" height="12" fill="#ffb600">
    <animate attributeName="opacity" values="1;0" keyTimes="0;1" dur="1.1363636363636365s" begin="-0.19318181818181818s" repeatCount="indefinite"></animate>
  </rect>
</g><g transform="rotate(298.8 50 50)">
  <rect x="47.5" y="24" rx="0" ry="0" width="5" height="12" fill="#ffb600">
    <animate attributeName="opacity" values="1;0" keyTimes="0;1" dur="1.1363636363636365s" begin="-0.18181818181818182s" repeatCount="indefinite"></animate>
  </rect>
</g><g transform="rotate(302.4 50 50)">
  <rect x="47.5" y="24" rx="0" ry="0" width="5" height="12" fill="#ffb600">
    <animate attributeName="opacity" values="1;0" keyTimes="0;1" dur="1.1363636363636365s" begin="-0.17045454545454544s" repeatCount="indefinite"></animate>
  </rect>
</g><g transform="rotate(306 50 50)">
  <rect x="47.5" y="24" rx="0" ry="0" width="5" height="12" fill="#ffb600">
    <animate attributeName="opacity" values="1;0" keyTimes="0;1" dur="1.1363636363636365s" begin="-0.1590909090909091s" repeatCount="indefinite"></animate>
  </rect>
</g><g transform="rotate(309.6 50 50)">
  <rect x="47.5" y="24" rx="0" ry="0" width="5" height="12" fill="#ffb600">
    <animate attributeName="opacity" values="1;0" keyTimes="0;1" dur="1.1363636363636365s" begin="-0.14772727272727273s" repeatCount="indefinite"></animate>
  </rect>
</g><g transform="rotate(313.2 50 50)">
  <rect x="47.5" y="24" rx="0" ry="0" width="5" height="12" fill="#ffb600">
    <animate attributeName="opacity" values="1;0" keyTimes="0;1" dur="1.1363636363636365s" begin="-0.13636363636363635s" repeatCount="indefinite"></animate>
  </rect>
</g><g transform="rotate(316.8 50 50)">
  <rect x="47.5" y="24" rx="0" ry="0" width="5" height="12" fill="#ffb600">
    <animate attributeName="opacity" values="1;0" keyTimes="0;1" dur="1.1363636363636365s" begin="-0.125s" repeatCount="indefinite"></animate>
  </rect>
</g><g transform="rotate(320.4 50 50)">
  <rect x="47.5" y="24" rx="0" ry="0" width="5" height="12" fill="#ffb600">
    <animate attributeName="opacity" values="1;0" keyTimes="0;1" dur="1.1363636363636365s" begin="-0.11363636363636363s" repeatCount="indefinite"></animate>
  </rect>
</g><g transform="rotate(324 50 50)">
  <rect x="47.5" y="24" rx="0" ry="0" width="5" height="12" fill="#ffb600">
    <animate attributeName="opacity" values="1;0" keyTimes="0;1" dur="1.1363636363636365s" begin="-0.10227272727272728s" repeatCount="indefinite"></animate>
  </rect>
</g><g transform="rotate(327.6 50 50)">
  <rect x="47.5" y="24" rx="0" ry="0" width="5" height="12" fill="#ffb600">
    <animate attributeName="opacity" values="1;0" keyTimes="0;1" dur="1.1363636363636365s" begin="-0.09090909090909091s" repeatCount="indefinite"></animate>
  </rect>
</g><g transform="rotate(331.2 50 50)">
  <rect x="47.5" y="24" rx="0" ry="0" width="5" height="12" fill="#ffb600">
    <animate attributeName="opacity" values="1;0" keyTimes="0;1" dur="1.1363636363636365s" begin="-0.07954545454545454s" repeatCount="indefinite"></animate>
  </rect>
</g><g transform="rotate(334.8 50 50)">
  <rect x="47.5" y="24" rx="0" ry="0" width="5" height="12" fill="#ffb600">
    <animate attributeName="opacity" values="1;0" keyTimes="0;1" dur="1.1363636363636365s" begin="-0.06818181818181818s" repeatCount="indefinite"></animate>
  </rect>
</g><g transform="rotate(338.4 50 50)">
  <rect x="47.5" y="24" rx="0" ry="0" width="5" height="12" fill="#ffb600">
    <animate attributeName="opacity" values="1;0" keyTimes="0;1" dur="1.1363636363636365s" begin="-0.056818181818181816s" repeatCount="indefinite"></animate>
  </rect>
</g><g transform="rotate(342 50 50)">
  <rect x="47.5" y="24" rx="0" ry="0" width="5" height="12" fill="#ffb600">
    <animate attributeName="opacity" values="1;0" keyTimes="0;1" dur="1.1363636363636365s" begin="-0.045454545454545456s" repeatCount="indefinite"></animate>
  </rect>
</g><g transform="rotate(345.6 50 50)">
  <rect x="47.5" y="24" rx="0" ry="0" width="5" height="12" fill="#ffb600">
    <animate attributeName="opacity" values="1;0" keyTimes="0;1" dur="1.1363636363636365s" begin="-0.03409090909090909s" repeatCount="indefinite"></animate>
  </rect>
</g><g transform="rotate(349.2 50 50)">
  <rect x="47.5" y="24" rx="0" ry="0" width="5" height="12" fill="#ffb600">
    <animate attributeName="opacity" values="1;0" keyTimes="0;1" dur="1.1363636363636365s" begin="-0.022727272727272728s" repeatCount="indefinite"></animate>
  </rect>
</g><g transform="rotate(352.8 50 50)">
  <rect x="47.5" y="24" rx="0" ry="0" width="5" height="12" fill="#ffb600">
    <animate attributeName="opacity" values="1;0" keyTimes="0;1" dur="1.1363636363636365s" begin="-0.011363636363636364s" repeatCount="indefinite"></animate>
  </rect>
</g><g transform="rotate(356.4 50 50)">
  <rect x="47.5" y="24" rx="0" ry="0" width="5" height="12" fill="#ffb600">
    <animate attributeName="opacity" values="1;0" keyTimes="0;1" dur="1.1363636363636365s" begin="0s" repeatCount="indefinite"></animate>
  </rect>
</g>
<!-- [ldio] generated by https://loading.io/ --></svg>